G04 #@! TF.FileFunction,Copper,L2,Bot,Signal*
%FSLAX46Y46*%
G04 Gerber Fmt 4.6, Leading zero omitted, Abs format (unit mm)*
G04 Created by KiCad (PCBNEW (2014-11-17 BZR 5289)-product) date Fri 09 Jan 2015 11:16:49 AM EST*
%MOMM*%
G01*
G04 APERTURE LIST*
%ADD10C,0.100000*%
%ADD11C,1.200000*%
%ADD12R,2.032000X1.727200*%
%ADD13O,2.032000X1.727200*%
%ADD14C,1.397000*%
%ADD15R,1.727200X1.727200*%
%ADD16O,1.727200X1.727200*%
%ADD17C,0.889000*%
%ADD18C,0.254000*%
G04 APERTURE END LIST*
D10*
D11*
X172250000Y-111500000D03*
X172250000Y-113500000D03*
X172250000Y-115500000D03*
X172250000Y-117500000D03*
X172250000Y-119500000D03*
X172250000Y-121500000D03*
X172250000Y-123500000D03*
X172250000Y-125500000D03*
X172250000Y-127500000D03*
X172250000Y-129500000D03*
D12*
X191500000Y-129100000D03*
D13*
X191500000Y-126560000D03*
X191500000Y-124020000D03*
X191500000Y-121480000D03*
X191500000Y-118940000D03*
X191500000Y-116400000D03*
D11*
X194250000Y-111500000D03*
X194250000Y-113500000D03*
X194250000Y-115500000D03*
X194250000Y-117500000D03*
X194250000Y-119500000D03*
X194250000Y-121500000D03*
X194250000Y-123500000D03*
X194250000Y-125500000D03*
X194250000Y-127500000D03*
X194250000Y-129500000D03*
D14*
X187060000Y-123710000D03*
X187060000Y-128790000D03*
X179440000Y-123710000D03*
X179440000Y-128790000D03*
D15*
X179440000Y-106980000D03*
D16*
X179440000Y-109520000D03*
X181980000Y-106980000D03*
X181980000Y-109520000D03*
X184520000Y-106980000D03*
X184520000Y-109520000D03*
X187060000Y-106980000D03*
X187060000Y-109520000D03*
D17*
X185500000Y-115500000D03*
X179500000Y-116500000D03*
D18*
X191500000Y-126560000D02*
X190060000Y-126560000D01*
X189500000Y-126000000D02*
X190060000Y-126560000D01*
X189500000Y-119500000D02*
X189500000Y-126000000D01*
X189500000Y-119500000D02*
X185500000Y-115500000D01*
X179440000Y-109520000D02*
X179440000Y-116440000D01*
X179440000Y-116440000D02*
X179500000Y-116500000D01*
X190600000Y-129100000D02*
X191500000Y-129100000D01*
X184520000Y-106980000D02*
X184520000Y-106270000D01*
X184520000Y-106270000D02*
X183500000Y-105250000D01*
X183500000Y-105250000D02*
X178000000Y-105250000D01*
X178000000Y-105250000D02*
X176000000Y-107250000D01*
X176000000Y-107250000D02*
X176000000Y-120270000D01*
X176000000Y-120270000D02*
X179440000Y-123710000D01*
G36*
X194296303Y-110265039D02*
X194005421Y-110264786D01*
X193551343Y-110452408D01*
X193203629Y-110799515D01*
X193015215Y-111253266D01*
X193014786Y-111744579D01*
X193202408Y-112198657D01*
X193503445Y-112500221D01*
X193203629Y-112799515D01*
X193015215Y-113253266D01*
X193014786Y-113744579D01*
X193202408Y-114198657D01*
X193503445Y-114500221D01*
X193203629Y-114799515D01*
X193015215Y-115253266D01*
X193014786Y-115744579D01*
X193202408Y-116198657D01*
X193503445Y-116500221D01*
X193203629Y-116799515D01*
X193015215Y-117253266D01*
X193014786Y-117744579D01*
X193202408Y-118198657D01*
X193503445Y-118500221D01*
X193203629Y-118799515D01*
X193171021Y-118878043D01*
X193069271Y-118366511D01*
X192744415Y-117880330D01*
X192434930Y-117673539D01*
X192850732Y-117302036D01*
X193104709Y-116774791D01*
X193107358Y-116759026D01*
X193107358Y-116040974D01*
X193104709Y-116025209D01*
X192850732Y-115497964D01*
X192414320Y-115108046D01*
X191861913Y-114914816D01*
X191627000Y-115059076D01*
X191627000Y-116273000D01*
X192986217Y-116273000D01*
X193107358Y-116040974D01*
X193107358Y-116759026D01*
X192986217Y-116527000D01*
X191627000Y-116527000D01*
X191627000Y-116547000D01*
X191373000Y-116547000D01*
X191373000Y-116527000D01*
X191373000Y-116273000D01*
X191373000Y-115059076D01*
X191138087Y-114914816D01*
X190585680Y-115108046D01*
X190149268Y-115497964D01*
X189895291Y-116025209D01*
X189892642Y-116040974D01*
X190013783Y-116273000D01*
X191373000Y-116273000D01*
X191373000Y-116527000D01*
X190013783Y-116527000D01*
X189892642Y-116759026D01*
X189895291Y-116774791D01*
X190149268Y-117302036D01*
X190565069Y-117673539D01*
X190255585Y-117880330D01*
X189930729Y-118366511D01*
X189849999Y-118772368D01*
X186579499Y-115501869D01*
X186579687Y-115286216D01*
X186415689Y-114889311D01*
X186112286Y-114585378D01*
X185715668Y-114420687D01*
X185286216Y-114420313D01*
X184889311Y-114584311D01*
X184585378Y-114887714D01*
X184420687Y-115284332D01*
X184420313Y-115713784D01*
X184584311Y-116110689D01*
X184887714Y-116414622D01*
X185284332Y-116579313D01*
X185501872Y-116579502D01*
X188738000Y-119815630D01*
X188738000Y-126000000D01*
X188796004Y-126291605D01*
X188961185Y-126538815D01*
X189521185Y-127098816D01*
X189768395Y-127263996D01*
X189768396Y-127263997D01*
X190056180Y-127321240D01*
X190255585Y-127619670D01*
X190277780Y-127634500D01*
X190124302Y-127698073D01*
X189945673Y-127876701D01*
X189849000Y-128110090D01*
X189849000Y-128362709D01*
X189849000Y-129044699D01*
X189838000Y-129100000D01*
X189849000Y-129155300D01*
X189849000Y-130089909D01*
X189942235Y-130315000D01*
X188405927Y-130315000D01*
X188405927Y-128982520D01*
X188393731Y-128758035D01*
X188393731Y-123445914D01*
X188191146Y-122955620D01*
X187816353Y-122580173D01*
X187326413Y-122376732D01*
X186795914Y-122376269D01*
X186305620Y-122578854D01*
X185930173Y-122953647D01*
X185726732Y-123443587D01*
X185726269Y-123974086D01*
X185928854Y-124464380D01*
X186303647Y-124839827D01*
X186793587Y-125043268D01*
X187324086Y-125043731D01*
X187814380Y-124841146D01*
X188189827Y-124466353D01*
X188393268Y-123976413D01*
X188393731Y-123445914D01*
X188393731Y-128758035D01*
X188377148Y-128452801D01*
X188229800Y-128097071D01*
X187994188Y-128035417D01*
X187814583Y-128215022D01*
X187814583Y-127855812D01*
X187752929Y-127620200D01*
X187252520Y-127444073D01*
X186722801Y-127472852D01*
X186367071Y-127620200D01*
X186305417Y-127855812D01*
X187060000Y-128610395D01*
X187814583Y-127855812D01*
X187814583Y-128215022D01*
X187239605Y-128790000D01*
X187994188Y-129544583D01*
X188229800Y-129482929D01*
X188405927Y-128982520D01*
X188405927Y-130315000D01*
X187814583Y-130315000D01*
X187814583Y-129724188D01*
X187060000Y-128969605D01*
X186880395Y-129149210D01*
X186880395Y-128790000D01*
X186125812Y-128035417D01*
X185890200Y-128097071D01*
X185714073Y-128597480D01*
X185742852Y-129127199D01*
X185890200Y-129482929D01*
X186125812Y-129544583D01*
X186880395Y-128790000D01*
X186880395Y-129149210D01*
X186305417Y-129724188D01*
X186367071Y-129959800D01*
X186867480Y-130135927D01*
X187397199Y-130107148D01*
X187752929Y-129959800D01*
X187814583Y-129724188D01*
X187814583Y-130315000D01*
X180785927Y-130315000D01*
X180785927Y-128982520D01*
X180757148Y-128452801D01*
X180609800Y-128097071D01*
X180374188Y-128035417D01*
X180194583Y-128215022D01*
X180194583Y-127855812D01*
X180132929Y-127620200D01*
X179632520Y-127444073D01*
X179102801Y-127472852D01*
X178747071Y-127620200D01*
X178685417Y-127855812D01*
X179440000Y-128610395D01*
X180194583Y-127855812D01*
X180194583Y-128215022D01*
X179619605Y-128790000D01*
X180374188Y-129544583D01*
X180609800Y-129482929D01*
X180785927Y-128982520D01*
X180785927Y-130315000D01*
X180194583Y-130315000D01*
X180194583Y-129724188D01*
X179440000Y-128969605D01*
X179260395Y-129149210D01*
X179260395Y-128790000D01*
X178505812Y-128035417D01*
X178270200Y-128097071D01*
X178094073Y-128597480D01*
X178122852Y-129127199D01*
X178270200Y-129482929D01*
X178505812Y-129544583D01*
X179260395Y-128790000D01*
X179260395Y-129149210D01*
X178685417Y-129724188D01*
X178747071Y-129959800D01*
X179247480Y-130135927D01*
X179777199Y-130107148D01*
X180132929Y-129959800D01*
X180194583Y-129724188D01*
X180194583Y-130315000D01*
X173497807Y-130315000D01*
X173212252Y-130315000D01*
X173228430Y-130298822D01*
X173112737Y-130183129D01*
X173338164Y-130133617D01*
X173497807Y-129668964D01*
X173467482Y-129178587D01*
X173338164Y-128866383D01*
X173112735Y-128816870D01*
X172429605Y-129500000D01*
X172443747Y-129514142D01*
X172264142Y-129693747D01*
X172250000Y-129679605D01*
X172235857Y-129693747D01*
X172056252Y-129514142D01*
X172070395Y-129500000D01*
X172056252Y-129485857D01*
X172235857Y-129306252D01*
X172250000Y-129320395D01*
X172933130Y-128637265D01*
X172916364Y-128560934D01*
X172948657Y-128547592D01*
X173296371Y-128200485D01*
X173484785Y-127746734D01*
X173485214Y-127255421D01*
X173297592Y-126801343D01*
X172996554Y-126499778D01*
X173296371Y-126200485D01*
X173484785Y-125746734D01*
X173485214Y-125255421D01*
X173297592Y-124801343D01*
X172996554Y-124499778D01*
X173296371Y-124200485D01*
X173484785Y-123746734D01*
X173485214Y-123255421D01*
X173297592Y-122801343D01*
X172996554Y-122499778D01*
X173296371Y-122200485D01*
X173484785Y-121746734D01*
X173485214Y-121255421D01*
X173297592Y-120801343D01*
X172996554Y-120499778D01*
X173296371Y-120200485D01*
X173484785Y-119746734D01*
X173485214Y-119255421D01*
X173297592Y-118801343D01*
X172996554Y-118499778D01*
X173296371Y-118200485D01*
X173484785Y-117746734D01*
X173485214Y-117255421D01*
X173297592Y-116801343D01*
X172996554Y-116499778D01*
X173296371Y-116200485D01*
X173484785Y-115746734D01*
X173485214Y-115255421D01*
X173297592Y-114801343D01*
X172996554Y-114499778D01*
X173296371Y-114200485D01*
X173484785Y-113746734D01*
X173485214Y-113255421D01*
X173297592Y-112801343D01*
X172996554Y-112499778D01*
X173296371Y-112200485D01*
X173484785Y-111746734D01*
X173485214Y-111255421D01*
X173297592Y-110801343D01*
X172950485Y-110453629D01*
X172496734Y-110265215D01*
X172203776Y-110264959D01*
X175242783Y-107225952D01*
X175238000Y-107250000D01*
X175238000Y-120270000D01*
X175296004Y-120561605D01*
X175461185Y-120808815D01*
X178106722Y-123454353D01*
X178106269Y-123974086D01*
X178308854Y-124464380D01*
X178683647Y-124839827D01*
X179173587Y-125043268D01*
X179704086Y-125043731D01*
X180194380Y-124841146D01*
X180569827Y-124466353D01*
X180773268Y-123976413D01*
X180773731Y-123445914D01*
X180571146Y-122955620D01*
X180196353Y-122580173D01*
X179706413Y-122376732D01*
X179183906Y-122376275D01*
X176762000Y-119954369D01*
X176762000Y-107565630D01*
X177941400Y-106386230D01*
X177941400Y-106694250D01*
X178100150Y-106853000D01*
X179313000Y-106853000D01*
X179313000Y-106833000D01*
X179567000Y-106833000D01*
X179567000Y-106853000D01*
X179587000Y-106853000D01*
X179587000Y-107107000D01*
X179567000Y-107107000D01*
X179567000Y-107127000D01*
X179313000Y-107127000D01*
X179313000Y-107107000D01*
X178100150Y-107107000D01*
X177941400Y-107265750D01*
X177941400Y-107717291D01*
X177941400Y-107969910D01*
X178038073Y-108203299D01*
X178216702Y-108381927D01*
X178372023Y-108446263D01*
X178350971Y-108460330D01*
X178026115Y-108946511D01*
X177912041Y-109520000D01*
X178026115Y-110093489D01*
X178350971Y-110579670D01*
X178678000Y-110798183D01*
X178678000Y-115795253D01*
X178585378Y-115887714D01*
X178420687Y-116284332D01*
X178420313Y-116713784D01*
X178584311Y-117110689D01*
X178887714Y-117414622D01*
X179284332Y-117579313D01*
X179713784Y-117579687D01*
X180110689Y-117415689D01*
X180414622Y-117112286D01*
X180579313Y-116715668D01*
X180579687Y-116286216D01*
X180415689Y-115889311D01*
X180202000Y-115675248D01*
X180202000Y-110798183D01*
X180529029Y-110579670D01*
X180710000Y-110308827D01*
X180890971Y-110579670D01*
X181377152Y-110904526D01*
X181950641Y-111018600D01*
X182009359Y-111018600D01*
X182582848Y-110904526D01*
X183069029Y-110579670D01*
X183250000Y-110308827D01*
X183430971Y-110579670D01*
X183917152Y-110904526D01*
X184490641Y-111018600D01*
X184549359Y-111018600D01*
X185122848Y-110904526D01*
X185609029Y-110579670D01*
X185790000Y-110308827D01*
X185970971Y-110579670D01*
X186457152Y-110904526D01*
X187030641Y-111018600D01*
X187089359Y-111018600D01*
X187662848Y-110904526D01*
X188149029Y-110579670D01*
X188473885Y-110093489D01*
X188587959Y-109520000D01*
X188473885Y-108946511D01*
X188149029Y-108460330D01*
X187834248Y-108250000D01*
X188149029Y-108039670D01*
X188473885Y-107553489D01*
X188587959Y-106980000D01*
X188473885Y-106406511D01*
X188149029Y-105920330D01*
X187662848Y-105595474D01*
X187089359Y-105481400D01*
X187030641Y-105481400D01*
X186457152Y-105595474D01*
X185970971Y-105920330D01*
X185790000Y-106191172D01*
X185609029Y-105920330D01*
X185122848Y-105595474D01*
X184873507Y-105545877D01*
X184038815Y-104711185D01*
X183999626Y-104685000D01*
X188716264Y-104685000D01*
X194296303Y-110265039D01*
X194296303Y-110265039D01*
G37*
X194296303Y-110265039D02*
X194005421Y-110264786D01*
X193551343Y-110452408D01*
X193203629Y-110799515D01*
X193015215Y-111253266D01*
X193014786Y-111744579D01*
X193202408Y-112198657D01*
X193503445Y-112500221D01*
X193203629Y-112799515D01*
X193015215Y-113253266D01*
X193014786Y-113744579D01*
X193202408Y-114198657D01*
X193503445Y-114500221D01*
X193203629Y-114799515D01*
X193015215Y-115253266D01*
X193014786Y-115744579D01*
X193202408Y-116198657D01*
X193503445Y-116500221D01*
X193203629Y-116799515D01*
X193015215Y-117253266D01*
X193014786Y-117744579D01*
X193202408Y-118198657D01*
X193503445Y-118500221D01*
X193203629Y-118799515D01*
X193171021Y-118878043D01*
X193069271Y-118366511D01*
X192744415Y-117880330D01*
X192434930Y-117673539D01*
X192850732Y-117302036D01*
X193104709Y-116774791D01*
X193107358Y-116759026D01*
X193107358Y-116040974D01*
X193104709Y-116025209D01*
X192850732Y-115497964D01*
X192414320Y-115108046D01*
X191861913Y-114914816D01*
X191627000Y-115059076D01*
X191627000Y-116273000D01*
X192986217Y-116273000D01*
X193107358Y-116040974D01*
X193107358Y-116759026D01*
X192986217Y-116527000D01*
X191627000Y-116527000D01*
X191627000Y-116547000D01*
X191373000Y-116547000D01*
X191373000Y-116527000D01*
X191373000Y-116273000D01*
X191373000Y-115059076D01*
X191138087Y-114914816D01*
X190585680Y-115108046D01*
X190149268Y-115497964D01*
X189895291Y-116025209D01*
X189892642Y-116040974D01*
X190013783Y-116273000D01*
X191373000Y-116273000D01*
X191373000Y-116527000D01*
X190013783Y-116527000D01*
X189892642Y-116759026D01*
X189895291Y-116774791D01*
X190149268Y-117302036D01*
X190565069Y-117673539D01*
X190255585Y-117880330D01*
X189930729Y-118366511D01*
X189849999Y-118772368D01*
X186579499Y-115501869D01*
X186579687Y-115286216D01*
X186415689Y-114889311D01*
X186112286Y-114585378D01*
X185715668Y-114420687D01*
X185286216Y-114420313D01*
X184889311Y-114584311D01*
X184585378Y-114887714D01*
X184420687Y-115284332D01*
X184420313Y-115713784D01*
X184584311Y-116110689D01*
X184887714Y-116414622D01*
X185284332Y-116579313D01*
X185501872Y-116579502D01*
X188738000Y-119815630D01*
X188738000Y-126000000D01*
X188796004Y-126291605D01*
X188961185Y-126538815D01*
X189521185Y-127098816D01*
X189768395Y-127263996D01*
X189768396Y-127263997D01*
X190056180Y-127321240D01*
X190255585Y-127619670D01*
X190277780Y-127634500D01*
X190124302Y-127698073D01*
X189945673Y-127876701D01*
X189849000Y-128110090D01*
X189849000Y-128362709D01*
X189849000Y-129044699D01*
X189838000Y-129100000D01*
X189849000Y-129155300D01*
X189849000Y-130089909D01*
X189942235Y-130315000D01*
X188405927Y-130315000D01*
X188405927Y-128982520D01*
X188393731Y-128758035D01*
X188393731Y-123445914D01*
X188191146Y-122955620D01*
X187816353Y-122580173D01*
X187326413Y-122376732D01*
X186795914Y-122376269D01*
X186305620Y-122578854D01*
X185930173Y-122953647D01*
X185726732Y-123443587D01*
X185726269Y-123974086D01*
X185928854Y-124464380D01*
X186303647Y-124839827D01*
X186793587Y-125043268D01*
X187324086Y-125043731D01*
X187814380Y-124841146D01*
X188189827Y-124466353D01*
X188393268Y-123976413D01*
X188393731Y-123445914D01*
X188393731Y-128758035D01*
X188377148Y-128452801D01*
X188229800Y-128097071D01*
X187994188Y-128035417D01*
X187814583Y-128215022D01*
X187814583Y-127855812D01*
X187752929Y-127620200D01*
X187252520Y-127444073D01*
X186722801Y-127472852D01*
X186367071Y-127620200D01*
X186305417Y-127855812D01*
X187060000Y-128610395D01*
X187814583Y-127855812D01*
X187814583Y-128215022D01*
X187239605Y-128790000D01*
X187994188Y-129544583D01*
X188229800Y-129482929D01*
X188405927Y-128982520D01*
X188405927Y-130315000D01*
X187814583Y-130315000D01*
X187814583Y-129724188D01*
X187060000Y-128969605D01*
X186880395Y-129149210D01*
X186880395Y-128790000D01*
X186125812Y-128035417D01*
X185890200Y-128097071D01*
X185714073Y-128597480D01*
X185742852Y-129127199D01*
X185890200Y-129482929D01*
X186125812Y-129544583D01*
X186880395Y-128790000D01*
X186880395Y-129149210D01*
X186305417Y-129724188D01*
X186367071Y-129959800D01*
X186867480Y-130135927D01*
X187397199Y-130107148D01*
X187752929Y-129959800D01*
X187814583Y-129724188D01*
X187814583Y-130315000D01*
X180785927Y-130315000D01*
X180785927Y-128982520D01*
X180757148Y-128452801D01*
X180609800Y-128097071D01*
X180374188Y-128035417D01*
X180194583Y-128215022D01*
X180194583Y-127855812D01*
X180132929Y-127620200D01*
X179632520Y-127444073D01*
X179102801Y-127472852D01*
X178747071Y-127620200D01*
X178685417Y-127855812D01*
X179440000Y-128610395D01*
X180194583Y-127855812D01*
X180194583Y-128215022D01*
X179619605Y-128790000D01*
X180374188Y-129544583D01*
X180609800Y-129482929D01*
X180785927Y-128982520D01*
X180785927Y-130315000D01*
X180194583Y-130315000D01*
X180194583Y-129724188D01*
X179440000Y-128969605D01*
X179260395Y-129149210D01*
X179260395Y-128790000D01*
X178505812Y-128035417D01*
X178270200Y-128097071D01*
X178094073Y-128597480D01*
X178122852Y-129127199D01*
X178270200Y-129482929D01*
X178505812Y-129544583D01*
X179260395Y-128790000D01*
X179260395Y-129149210D01*
X178685417Y-129724188D01*
X178747071Y-129959800D01*
X179247480Y-130135927D01*
X179777199Y-130107148D01*
X180132929Y-129959800D01*
X180194583Y-129724188D01*
X180194583Y-130315000D01*
X173497807Y-130315000D01*
X173212252Y-130315000D01*
X173228430Y-130298822D01*
X173112737Y-130183129D01*
X173338164Y-130133617D01*
X173497807Y-129668964D01*
X173467482Y-129178587D01*
X173338164Y-128866383D01*
X173112735Y-128816870D01*
X172429605Y-129500000D01*
X172443747Y-129514142D01*
X172264142Y-129693747D01*
X172250000Y-129679605D01*
X172235857Y-129693747D01*
X172056252Y-129514142D01*
X172070395Y-129500000D01*
X172056252Y-129485857D01*
X172235857Y-129306252D01*
X172250000Y-129320395D01*
X172933130Y-128637265D01*
X172916364Y-128560934D01*
X172948657Y-128547592D01*
X173296371Y-128200485D01*
X173484785Y-127746734D01*
X173485214Y-127255421D01*
X173297592Y-126801343D01*
X172996554Y-126499778D01*
X173296371Y-126200485D01*
X173484785Y-125746734D01*
X173485214Y-125255421D01*
X173297592Y-124801343D01*
X172996554Y-124499778D01*
X173296371Y-124200485D01*
X173484785Y-123746734D01*
X173485214Y-123255421D01*
X173297592Y-122801343D01*
X172996554Y-122499778D01*
X173296371Y-122200485D01*
X173484785Y-121746734D01*
X173485214Y-121255421D01*
X173297592Y-120801343D01*
X172996554Y-120499778D01*
X173296371Y-120200485D01*
X173484785Y-119746734D01*
X173485214Y-119255421D01*
X173297592Y-118801343D01*
X172996554Y-118499778D01*
X173296371Y-118200485D01*
X173484785Y-117746734D01*
X173485214Y-117255421D01*
X173297592Y-116801343D01*
X172996554Y-116499778D01*
X173296371Y-116200485D01*
X173484785Y-115746734D01*
X173485214Y-115255421D01*
X173297592Y-114801343D01*
X172996554Y-114499778D01*
X173296371Y-114200485D01*
X173484785Y-113746734D01*
X173485214Y-113255421D01*
X173297592Y-112801343D01*
X172996554Y-112499778D01*
X173296371Y-112200485D01*
X173484785Y-111746734D01*
X173485214Y-111255421D01*
X173297592Y-110801343D01*
X172950485Y-110453629D01*
X172496734Y-110265215D01*
X172203776Y-110264959D01*
X175242783Y-107225952D01*
X175238000Y-107250000D01*
X175238000Y-120270000D01*
X175296004Y-120561605D01*
X175461185Y-120808815D01*
X178106722Y-123454353D01*
X178106269Y-123974086D01*
X178308854Y-124464380D01*
X178683647Y-124839827D01*
X179173587Y-125043268D01*
X179704086Y-125043731D01*
X180194380Y-124841146D01*
X180569827Y-124466353D01*
X180773268Y-123976413D01*
X180773731Y-123445914D01*
X180571146Y-122955620D01*
X180196353Y-122580173D01*
X179706413Y-122376732D01*
X179183906Y-122376275D01*
X176762000Y-119954369D01*
X176762000Y-107565630D01*
X177941400Y-106386230D01*
X177941400Y-106694250D01*
X178100150Y-106853000D01*
X179313000Y-106853000D01*
X179313000Y-106833000D01*
X179567000Y-106833000D01*
X179567000Y-106853000D01*
X179587000Y-106853000D01*
X179587000Y-107107000D01*
X179567000Y-107107000D01*
X179567000Y-107127000D01*
X179313000Y-107127000D01*
X179313000Y-107107000D01*
X178100150Y-107107000D01*
X177941400Y-107265750D01*
X177941400Y-107717291D01*
X177941400Y-107969910D01*
X178038073Y-108203299D01*
X178216702Y-108381927D01*
X178372023Y-108446263D01*
X178350971Y-108460330D01*
X178026115Y-108946511D01*
X177912041Y-109520000D01*
X178026115Y-110093489D01*
X178350971Y-110579670D01*
X178678000Y-110798183D01*
X178678000Y-115795253D01*
X178585378Y-115887714D01*
X178420687Y-116284332D01*
X178420313Y-116713784D01*
X178584311Y-117110689D01*
X178887714Y-117414622D01*
X179284332Y-117579313D01*
X179713784Y-117579687D01*
X180110689Y-117415689D01*
X180414622Y-117112286D01*
X180579313Y-116715668D01*
X180579687Y-116286216D01*
X180415689Y-115889311D01*
X180202000Y-115675248D01*
X180202000Y-110798183D01*
X180529029Y-110579670D01*
X180710000Y-110308827D01*
X180890971Y-110579670D01*
X181377152Y-110904526D01*
X181950641Y-111018600D01*
X182009359Y-111018600D01*
X182582848Y-110904526D01*
X183069029Y-110579670D01*
X183250000Y-110308827D01*
X183430971Y-110579670D01*
X183917152Y-110904526D01*
X184490641Y-111018600D01*
X184549359Y-111018600D01*
X185122848Y-110904526D01*
X185609029Y-110579670D01*
X185790000Y-110308827D01*
X185970971Y-110579670D01*
X186457152Y-110904526D01*
X187030641Y-111018600D01*
X187089359Y-111018600D01*
X187662848Y-110904526D01*
X188149029Y-110579670D01*
X188473885Y-110093489D01*
X188587959Y-109520000D01*
X188473885Y-108946511D01*
X188149029Y-108460330D01*
X187834248Y-108250000D01*
X188149029Y-108039670D01*
X188473885Y-107553489D01*
X188587959Y-106980000D01*
X188473885Y-106406511D01*
X188149029Y-105920330D01*
X187662848Y-105595474D01*
X187089359Y-105481400D01*
X187030641Y-105481400D01*
X186457152Y-105595474D01*
X185970971Y-105920330D01*
X185790000Y-106191172D01*
X185609029Y-105920330D01*
X185122848Y-105595474D01*
X184873507Y-105545877D01*
X184038815Y-104711185D01*
X183999626Y-104685000D01*
X188716264Y-104685000D01*
X194296303Y-110265039D01*
M02*
