G04 #@! TF.FileFunction,Legend,Top*
%FSLAX46Y46*%
G04 Gerber Fmt 4.6, Leading zero omitted, Abs format (unit mm)*
G04 Created by KiCad (PCBNEW (2014-11-17 BZR 5289)-product) date Fri 09 Jan 2015 11:16:49 AM EST*
%MOMM*%
G01*
G04 APERTURE LIST*
%ADD10C,0.100000*%
%ADD11C,0.150000*%
G04 APERTURE END LIST*
D10*
D11*
X190230000Y-127830000D02*
X190230000Y-115130000D01*
X190230000Y-115130000D02*
X192770000Y-115130000D01*
X192770000Y-115130000D02*
X192770000Y-127830000D01*
X190230000Y-130370000D02*
X190230000Y-127830000D01*
X190230000Y-127830000D02*
X192770000Y-127830000D01*
X190230000Y-130370000D02*
X192770000Y-130370000D01*
X192770000Y-130370000D02*
X192770000Y-127830000D01*
X185790000Y-126250000D02*
G75*
G03X185790000Y-126250000I-2540000J0D01*
G01*
X179440000Y-122440000D02*
X187060000Y-122440000D01*
X187060000Y-122440000D02*
X187060000Y-130060000D01*
X187060000Y-130060000D02*
X179440000Y-130060000D01*
X179440000Y-122440000D02*
X179440000Y-130060000D01*
X174607143Y-129750000D02*
X174654762Y-129797619D01*
X174702381Y-129940476D01*
X174702381Y-130035714D01*
X174654762Y-130178572D01*
X174559524Y-130273810D01*
X174464286Y-130321429D01*
X174273810Y-130369048D01*
X174130952Y-130369048D01*
X173940476Y-130321429D01*
X173845238Y-130273810D01*
X173750000Y-130178572D01*
X173702381Y-130035714D01*
X173702381Y-129940476D01*
X173750000Y-129797619D01*
X173797619Y-129750000D01*
X173702381Y-129130953D02*
X173702381Y-128940476D01*
X173750000Y-128845238D01*
X173845238Y-128750000D01*
X174035714Y-128702381D01*
X174369048Y-128702381D01*
X174559524Y-128750000D01*
X174654762Y-128845238D01*
X174702381Y-128940476D01*
X174702381Y-129130953D01*
X174654762Y-129226191D01*
X174559524Y-129321429D01*
X174369048Y-129369048D01*
X174035714Y-129369048D01*
X173845238Y-129321429D01*
X173750000Y-129226191D01*
X173702381Y-129130953D01*
X174702381Y-128273810D02*
X173702381Y-128273810D01*
X174702381Y-127702381D01*
X173702381Y-127702381D01*
X174702381Y-127226191D02*
X173702381Y-127226191D01*
X174702381Y-126654762D01*
X173702381Y-126654762D01*
X174797619Y-126416667D02*
X174797619Y-125654762D01*
X173702381Y-125511905D02*
X174702381Y-124845238D01*
X173702381Y-124845238D02*
X174702381Y-125511905D01*
X174178571Y-124130952D02*
X174226190Y-123988095D01*
X174273810Y-123940476D01*
X174369048Y-123892857D01*
X174511905Y-123892857D01*
X174607143Y-123940476D01*
X174654762Y-123988095D01*
X174702381Y-124083333D01*
X174702381Y-124464286D01*
X173702381Y-124464286D01*
X173702381Y-124130952D01*
X173750000Y-124035714D01*
X173797619Y-123988095D01*
X173892857Y-123940476D01*
X173988095Y-123940476D01*
X174083333Y-123988095D01*
X174130952Y-124035714D01*
X174178571Y-124130952D01*
X174178571Y-124464286D01*
X174178571Y-123464286D02*
X174178571Y-123130952D01*
X174702381Y-122988095D02*
X174702381Y-123464286D01*
X173702381Y-123464286D01*
X173702381Y-122988095D01*
X174178571Y-122559524D02*
X174178571Y-122226190D01*
X174702381Y-122083333D02*
X174702381Y-122559524D01*
X173702381Y-122559524D01*
X173702381Y-122083333D01*
X174702381Y-121130952D02*
X174702381Y-121702381D01*
X174702381Y-121416667D02*
X173702381Y-121416667D01*
X173845238Y-121511905D01*
X173940476Y-121607143D01*
X173988095Y-121702381D01*
X189047619Y-114607143D02*
X189000000Y-114654762D01*
X188857143Y-114702381D01*
X188761905Y-114702381D01*
X188619047Y-114654762D01*
X188523809Y-114559524D01*
X188476190Y-114464286D01*
X188428571Y-114273810D01*
X188428571Y-114130952D01*
X188476190Y-113940476D01*
X188523809Y-113845238D01*
X188619047Y-113750000D01*
X188761905Y-113702381D01*
X188857143Y-113702381D01*
X189000000Y-113750000D01*
X189047619Y-113797619D01*
X189238095Y-114797619D02*
X190000000Y-114797619D01*
X190190476Y-114654762D02*
X190333333Y-114702381D01*
X190571429Y-114702381D01*
X190666667Y-114654762D01*
X190714286Y-114607143D01*
X190761905Y-114511905D01*
X190761905Y-114416667D01*
X190714286Y-114321429D01*
X190666667Y-114273810D01*
X190571429Y-114226190D01*
X190380952Y-114178571D01*
X190285714Y-114130952D01*
X190238095Y-114083333D01*
X190190476Y-113988095D01*
X190190476Y-113892857D01*
X190238095Y-113797619D01*
X190285714Y-113750000D01*
X190380952Y-113702381D01*
X190619048Y-113702381D01*
X190761905Y-113750000D01*
X191761905Y-114702381D02*
X191428571Y-114226190D01*
X191190476Y-114702381D02*
X191190476Y-113702381D01*
X191571429Y-113702381D01*
X191666667Y-113750000D01*
X191714286Y-113797619D01*
X191761905Y-113892857D01*
X191761905Y-114035714D01*
X191714286Y-114130952D01*
X191666667Y-114178571D01*
X191571429Y-114226190D01*
X191190476Y-114226190D01*
X192666667Y-114702381D02*
X192190476Y-114702381D01*
X192190476Y-113702381D01*
X179297619Y-126654762D02*
X179440476Y-126702381D01*
X179678572Y-126702381D01*
X179773810Y-126654762D01*
X179821429Y-126607143D01*
X179869048Y-126511905D01*
X179869048Y-126416667D01*
X179821429Y-126321429D01*
X179773810Y-126273810D01*
X179678572Y-126226190D01*
X179488095Y-126178571D01*
X179392857Y-126130952D01*
X179345238Y-126083333D01*
X179297619Y-125988095D01*
X179297619Y-125892857D01*
X179345238Y-125797619D01*
X179392857Y-125750000D01*
X179488095Y-125702381D01*
X179726191Y-125702381D01*
X179869048Y-125750000D01*
X180202381Y-125702381D02*
X180440476Y-126702381D01*
X180630953Y-125988095D01*
X180821429Y-126702381D01*
X181059524Y-125702381D01*
X181202381Y-126797619D02*
X181964286Y-126797619D01*
X182773810Y-126607143D02*
X182726191Y-126654762D01*
X182583334Y-126702381D01*
X182488096Y-126702381D01*
X182345238Y-126654762D01*
X182250000Y-126559524D01*
X182202381Y-126464286D01*
X182154762Y-126273810D01*
X182154762Y-126130952D01*
X182202381Y-125940476D01*
X182250000Y-125845238D01*
X182345238Y-125750000D01*
X182488096Y-125702381D01*
X182583334Y-125702381D01*
X182726191Y-125750000D01*
X182773810Y-125797619D01*
X183392857Y-125702381D02*
X183583334Y-125702381D01*
X183678572Y-125750000D01*
X183773810Y-125845238D01*
X183821429Y-126035714D01*
X183821429Y-126369048D01*
X183773810Y-126559524D01*
X183678572Y-126654762D01*
X183583334Y-126702381D01*
X183392857Y-126702381D01*
X183297619Y-126654762D01*
X183202381Y-126559524D01*
X183154762Y-126369048D01*
X183154762Y-126035714D01*
X183202381Y-125845238D01*
X183297619Y-125750000D01*
X183392857Y-125702381D01*
X184250000Y-126702381D02*
X184250000Y-125702381D01*
X184821429Y-126702381D01*
X184821429Y-125702381D01*
X185630953Y-126178571D02*
X185297619Y-126178571D01*
X185297619Y-126702381D02*
X185297619Y-125702381D01*
X185773810Y-125702381D01*
X186154762Y-126702381D02*
X186154762Y-125702381D01*
X187154762Y-125750000D02*
X187059524Y-125702381D01*
X186916667Y-125702381D01*
X186773809Y-125750000D01*
X186678571Y-125845238D01*
X186630952Y-125940476D01*
X186583333Y-126130952D01*
X186583333Y-126273810D01*
X186630952Y-126464286D01*
X186678571Y-126559524D01*
X186773809Y-126654762D01*
X186916667Y-126702381D01*
X187011905Y-126702381D01*
X187154762Y-126654762D01*
X187202381Y-126607143D01*
X187202381Y-126273810D01*
X187011905Y-126273810D01*
M02*
