M48
;DRILL file {kicad (2014-11-17 BZR 5289)-product} date Fri 09 Jan 2015 11:16:58 AM EST
;FORMAT={-:-/ absolute / inch / decimal}
FMAT,2
INCH,TZ
T1C0.024
T2C0.025
T3C0.032
T4C0.040
%
G90
G05
M72
T1
X6.7815Y-4.3898
X6.7815Y-4.4685
X6.7815Y-4.5472
X6.7815Y-4.626
X6.7815Y-4.7047
X6.7815Y-4.7835
X6.7815Y-4.8622
X6.7815Y-4.9409
X6.7815Y-5.0197
X6.7815Y-5.0984
X7.6476Y-4.3898
X7.6476Y-4.4685
X7.6476Y-4.5472
X7.6476Y-4.626
X7.6476Y-4.7047
X7.6476Y-4.7835
X7.6476Y-4.8622
X7.6476Y-4.9409
X7.6476Y-5.0197
X7.6476Y-5.0984
T2
X7.0669Y-4.5866
X7.3031Y-4.5472
T3
X7.0646Y-4.8705
X7.0646Y-5.0705
X7.3646Y-4.8705
X7.3646Y-5.0705
T4
X7.0646Y-4.2118
X7.0646Y-4.3118
X7.1646Y-4.2118
X7.1646Y-4.3118
X7.2646Y-4.2118
X7.2646Y-4.3118
X7.3646Y-4.2118
X7.3646Y-4.3118
X7.5394Y-4.5827
X7.5394Y-4.6827
X7.5394Y-4.7827
X7.5394Y-4.8827
X7.5394Y-4.9827
X7.5394Y-5.0827
T0
M30
