G04 #@! TF.FileFunction,Copper,L2,Bot,Signal*
%FSLAX46Y46*%
G04 Gerber Fmt 4.6, Leading zero omitted, Abs format (unit mm)*
G04 Created by KiCad (PCBNEW (2014-11-17 BZR 5289)-product) date Mon 26 Jan 2015 09:38:41 AM EST*
%MOMM*%
G01*
G04 APERTURE LIST*
%ADD10C,0.100000*%
%ADD11C,1.397000*%
%ADD12C,1.200000*%
%ADD13R,1.727200X1.727200*%
%ADD14O,1.727200X1.727200*%
%ADD15R,2.032000X1.727200*%
%ADD16O,2.032000X1.727200*%
%ADD17C,0.254000*%
G04 APERTURE END LIST*
D10*
D11*
X186750000Y-123750000D03*
X186750000Y-128750000D03*
X180250000Y-123750000D03*
X180250000Y-128750000D03*
D12*
X172250000Y-111500000D03*
X172250000Y-113500000D03*
X172250000Y-115500000D03*
X172250000Y-117500000D03*
X172250000Y-119500000D03*
X172250000Y-121500000D03*
X172250000Y-123500000D03*
X172250000Y-125500000D03*
X172250000Y-127500000D03*
X172250000Y-129500000D03*
X194250000Y-111500000D03*
X194250000Y-113500000D03*
X194250000Y-115500000D03*
X194250000Y-117500000D03*
X194250000Y-119500000D03*
X194250000Y-121500000D03*
X194250000Y-123500000D03*
X194250000Y-125500000D03*
X194250000Y-127500000D03*
X194250000Y-129500000D03*
D13*
X187060000Y-109520000D03*
D14*
X187060000Y-106980000D03*
X184520000Y-109520000D03*
X184520000Y-106980000D03*
X181980000Y-109520000D03*
X181980000Y-106980000D03*
X179440000Y-109520000D03*
X179440000Y-106980000D03*
D15*
X191250000Y-129100000D03*
D16*
X191250000Y-126560000D03*
X191250000Y-124020000D03*
X191250000Y-121480000D03*
X191250000Y-118940000D03*
X191250000Y-116400000D03*
D17*
X190600000Y-129100000D02*
X191500000Y-129100000D01*
X179440000Y-123710000D02*
X179440000Y-114560000D01*
X181980000Y-112020000D02*
X181980000Y-109520000D01*
X179440000Y-114560000D02*
X181980000Y-112020000D01*
X181980000Y-109520000D02*
X181980000Y-110230000D01*
X187060000Y-106980000D02*
X188230000Y-106980000D01*
X189250000Y-124560000D02*
X191250000Y-126560000D01*
X189250000Y-108000000D02*
X189250000Y-124560000D01*
X188230000Y-106980000D02*
X189250000Y-108000000D01*
G36*
X194296303Y-110265039D02*
X194005421Y-110264786D01*
X193551343Y-110452408D01*
X193203629Y-110799515D01*
X193015215Y-111253266D01*
X193014786Y-111744579D01*
X193202408Y-112198657D01*
X193503445Y-112500221D01*
X193203629Y-112799515D01*
X193015215Y-113253266D01*
X193014786Y-113744579D01*
X193202408Y-114198657D01*
X193503445Y-114500221D01*
X193203629Y-114799515D01*
X193015215Y-115253266D01*
X193014786Y-115744579D01*
X193202408Y-116198657D01*
X193503445Y-116500221D01*
X193203629Y-116799515D01*
X193015215Y-117253266D01*
X193014786Y-117744579D01*
X193202408Y-118198657D01*
X193503445Y-118500221D01*
X193203629Y-118799515D01*
X193015215Y-119253266D01*
X193014786Y-119744579D01*
X193202408Y-120198657D01*
X193503445Y-120500221D01*
X193203629Y-120799515D01*
X193015215Y-121253266D01*
X193014786Y-121744579D01*
X193202408Y-122198657D01*
X193503445Y-122500221D01*
X193203629Y-122799515D01*
X193015215Y-123253266D01*
X193014786Y-123744579D01*
X193202408Y-124198657D01*
X193503445Y-124500221D01*
X193203629Y-124799515D01*
X193015215Y-125253266D01*
X193014786Y-125744579D01*
X193202408Y-126198657D01*
X193503445Y-126500221D01*
X193203629Y-126799515D01*
X193015215Y-127253266D01*
X193014786Y-127744579D01*
X193202408Y-128198657D01*
X193503445Y-128500221D01*
X193203629Y-128799515D01*
X193015215Y-129253266D01*
X193014786Y-129744579D01*
X193202408Y-130198657D01*
X193318547Y-130315000D01*
X192807764Y-130315000D01*
X192901000Y-130089910D01*
X192901000Y-129837291D01*
X192901000Y-128110091D01*
X192804327Y-127876702D01*
X192625699Y-127698073D01*
X192472220Y-127634499D01*
X192494415Y-127619670D01*
X192819271Y-127133489D01*
X192933345Y-126560000D01*
X192819271Y-125986511D01*
X192494415Y-125500330D01*
X192179634Y-125290000D01*
X192494415Y-125079670D01*
X192819271Y-124593489D01*
X192933345Y-124020000D01*
X192819271Y-123446511D01*
X192494415Y-122960330D01*
X192179634Y-122750000D01*
X192494415Y-122539670D01*
X192819271Y-122053489D01*
X192933345Y-121480000D01*
X192819271Y-120906511D01*
X192494415Y-120420330D01*
X192179634Y-120210000D01*
X192494415Y-119999670D01*
X192819271Y-119513489D01*
X192933345Y-118940000D01*
X192819271Y-118366511D01*
X192494415Y-117880330D01*
X192184930Y-117673539D01*
X192600732Y-117302036D01*
X192854709Y-116774791D01*
X192857358Y-116759026D01*
X192857358Y-116040974D01*
X192854709Y-116025209D01*
X192600732Y-115497964D01*
X192164320Y-115108046D01*
X191611913Y-114914816D01*
X191377000Y-115059076D01*
X191377000Y-116273000D01*
X192736217Y-116273000D01*
X192857358Y-116040974D01*
X192857358Y-116759026D01*
X192736217Y-116527000D01*
X191377000Y-116527000D01*
X191377000Y-116547000D01*
X191123000Y-116547000D01*
X191123000Y-116527000D01*
X191103000Y-116527000D01*
X191103000Y-116273000D01*
X191123000Y-116273000D01*
X191123000Y-115059076D01*
X190888087Y-114914816D01*
X190335680Y-115108046D01*
X190012000Y-115397242D01*
X190012000Y-108000000D01*
X189953996Y-107708396D01*
X189953996Y-107708395D01*
X189788815Y-107461185D01*
X188768815Y-106441185D01*
X188521605Y-106276004D01*
X188366001Y-106245052D01*
X188149029Y-105920330D01*
X187662848Y-105595474D01*
X187089359Y-105481400D01*
X187030641Y-105481400D01*
X186457152Y-105595474D01*
X185970971Y-105920330D01*
X185790000Y-106191172D01*
X185609029Y-105920330D01*
X185122848Y-105595474D01*
X184549359Y-105481400D01*
X184490641Y-105481400D01*
X183917152Y-105595474D01*
X183430971Y-105920330D01*
X183250000Y-106191172D01*
X183069029Y-105920330D01*
X182582848Y-105595474D01*
X182009359Y-105481400D01*
X181950641Y-105481400D01*
X181377152Y-105595474D01*
X180890971Y-105920330D01*
X180710000Y-106191172D01*
X180529029Y-105920330D01*
X180042848Y-105595474D01*
X179469359Y-105481400D01*
X179410641Y-105481400D01*
X178837152Y-105595474D01*
X178350971Y-105920330D01*
X178026115Y-106406511D01*
X177912041Y-106980000D01*
X178026115Y-107553489D01*
X178350971Y-108039670D01*
X178665751Y-108250000D01*
X178350971Y-108460330D01*
X178026115Y-108946511D01*
X177912041Y-109520000D01*
X178026115Y-110093489D01*
X178350971Y-110579670D01*
X178837152Y-110904526D01*
X179410641Y-111018600D01*
X179469359Y-111018600D01*
X180042848Y-110904526D01*
X180529029Y-110579670D01*
X180710000Y-110308827D01*
X180890971Y-110579670D01*
X181218000Y-110798183D01*
X181218000Y-111704369D01*
X178901185Y-114021185D01*
X178736004Y-114268395D01*
X178678000Y-114560000D01*
X178678000Y-123710000D01*
X178736004Y-124001605D01*
X178901185Y-124248815D01*
X179055998Y-124352258D01*
X179118854Y-124504380D01*
X179493647Y-124879827D01*
X179983587Y-125083268D01*
X180514086Y-125083731D01*
X181004380Y-124881146D01*
X181379827Y-124506353D01*
X181583268Y-124016413D01*
X181583731Y-123485914D01*
X181381146Y-122995620D01*
X181006353Y-122620173D01*
X180516413Y-122416732D01*
X180202000Y-122416457D01*
X180202000Y-114875630D01*
X182518815Y-112558816D01*
X182518815Y-112558815D01*
X182683996Y-112311605D01*
X182741999Y-112020000D01*
X182742000Y-112020000D01*
X182742000Y-110798183D01*
X183069029Y-110579670D01*
X183250000Y-110308827D01*
X183430971Y-110579670D01*
X183917152Y-110904526D01*
X184490641Y-111018600D01*
X184549359Y-111018600D01*
X185122848Y-110904526D01*
X185594356Y-110589473D01*
X185658073Y-110743299D01*
X185836702Y-110921927D01*
X186070091Y-111018600D01*
X186774250Y-111018600D01*
X186933000Y-110859850D01*
X186933000Y-109647000D01*
X186913000Y-109647000D01*
X186913000Y-109393000D01*
X186933000Y-109393000D01*
X186933000Y-109373000D01*
X187187000Y-109373000D01*
X187187000Y-109393000D01*
X187207000Y-109393000D01*
X187207000Y-109647000D01*
X187187000Y-109647000D01*
X187187000Y-110859850D01*
X187345750Y-111018600D01*
X188049909Y-111018600D01*
X188283298Y-110921927D01*
X188461927Y-110743299D01*
X188488000Y-110680353D01*
X188488000Y-124560000D01*
X188546004Y-124851605D01*
X188711185Y-125098815D01*
X189667149Y-126054779D01*
X189566655Y-126560000D01*
X189680729Y-127133489D01*
X190005585Y-127619670D01*
X190027780Y-127634500D01*
X189874302Y-127698073D01*
X189695673Y-127876701D01*
X189599000Y-128110090D01*
X189599000Y-128362709D01*
X189599000Y-130089909D01*
X189692235Y-130315000D01*
X188095927Y-130315000D01*
X188095927Y-128942520D01*
X188083731Y-128718035D01*
X188083731Y-123485914D01*
X187881146Y-122995620D01*
X187506353Y-122620173D01*
X187016413Y-122416732D01*
X186485914Y-122416269D01*
X185995620Y-122618854D01*
X185620173Y-122993647D01*
X185416732Y-123483587D01*
X185416269Y-124014086D01*
X185618854Y-124504380D01*
X185993647Y-124879827D01*
X186483587Y-125083268D01*
X187014086Y-125083731D01*
X187504380Y-124881146D01*
X187879827Y-124506353D01*
X188083268Y-124016413D01*
X188083731Y-123485914D01*
X188083731Y-128718035D01*
X188067148Y-128412801D01*
X187919800Y-128057071D01*
X187684188Y-127995417D01*
X187504583Y-128175022D01*
X187504583Y-127815812D01*
X187442929Y-127580200D01*
X186942520Y-127404073D01*
X186412801Y-127432852D01*
X186057071Y-127580200D01*
X185995417Y-127815812D01*
X186750000Y-128570395D01*
X187504583Y-127815812D01*
X187504583Y-128175022D01*
X186929605Y-128750000D01*
X187684188Y-129504583D01*
X187919800Y-129442929D01*
X188095927Y-128942520D01*
X188095927Y-130315000D01*
X187504583Y-130315000D01*
X187504583Y-129684188D01*
X186750000Y-128929605D01*
X186570395Y-129109210D01*
X186570395Y-128750000D01*
X185815812Y-127995417D01*
X185580200Y-128057071D01*
X185404073Y-128557480D01*
X185432852Y-129087199D01*
X185580200Y-129442929D01*
X185815812Y-129504583D01*
X186570395Y-128750000D01*
X186570395Y-129109210D01*
X185995417Y-129684188D01*
X186057071Y-129919800D01*
X186557480Y-130095927D01*
X187087199Y-130067148D01*
X187442929Y-129919800D01*
X187504583Y-129684188D01*
X187504583Y-130315000D01*
X181595927Y-130315000D01*
X181595927Y-128942520D01*
X181567148Y-128412801D01*
X181419800Y-128057071D01*
X181184188Y-127995417D01*
X181004583Y-128175022D01*
X181004583Y-127815812D01*
X180942929Y-127580200D01*
X180442520Y-127404073D01*
X179912801Y-127432852D01*
X179557071Y-127580200D01*
X179495417Y-127815812D01*
X180250000Y-128570395D01*
X181004583Y-127815812D01*
X181004583Y-128175022D01*
X180429605Y-128750000D01*
X181184188Y-129504583D01*
X181419800Y-129442929D01*
X181595927Y-128942520D01*
X181595927Y-130315000D01*
X181004583Y-130315000D01*
X181004583Y-129684188D01*
X180250000Y-128929605D01*
X180070395Y-129109210D01*
X180070395Y-128750000D01*
X179315812Y-127995417D01*
X179080200Y-128057071D01*
X178904073Y-128557480D01*
X178932852Y-129087199D01*
X179080200Y-129442929D01*
X179315812Y-129504583D01*
X180070395Y-128750000D01*
X180070395Y-129109210D01*
X179495417Y-129684188D01*
X179557071Y-129919800D01*
X180057480Y-130095927D01*
X180587199Y-130067148D01*
X180942929Y-129919800D01*
X181004583Y-129684188D01*
X181004583Y-130315000D01*
X173497807Y-130315000D01*
X173212252Y-130315000D01*
X173228430Y-130298822D01*
X173112737Y-130183129D01*
X173338164Y-130133617D01*
X173497807Y-129668964D01*
X173467482Y-129178587D01*
X173338164Y-128866383D01*
X173112735Y-128816870D01*
X172429605Y-129500000D01*
X172443747Y-129514142D01*
X172264142Y-129693747D01*
X172250000Y-129679605D01*
X172235857Y-129693747D01*
X172056252Y-129514142D01*
X172070395Y-129500000D01*
X172056252Y-129485857D01*
X172235857Y-129306252D01*
X172250000Y-129320395D01*
X172933130Y-128637265D01*
X172916364Y-128560934D01*
X172948657Y-128547592D01*
X173296371Y-128200485D01*
X173484785Y-127746734D01*
X173485214Y-127255421D01*
X173297592Y-126801343D01*
X172996554Y-126499778D01*
X173296371Y-126200485D01*
X173484785Y-125746734D01*
X173485214Y-125255421D01*
X173297592Y-124801343D01*
X172996554Y-124499778D01*
X173296371Y-124200485D01*
X173484785Y-123746734D01*
X173485214Y-123255421D01*
X173297592Y-122801343D01*
X172996554Y-122499778D01*
X173296371Y-122200485D01*
X173484785Y-121746734D01*
X173485214Y-121255421D01*
X173297592Y-120801343D01*
X172996554Y-120499778D01*
X173296371Y-120200485D01*
X173484785Y-119746734D01*
X173485214Y-119255421D01*
X173297592Y-118801343D01*
X172996554Y-118499778D01*
X173296371Y-118200485D01*
X173484785Y-117746734D01*
X173485214Y-117255421D01*
X173297592Y-116801343D01*
X172996554Y-116499778D01*
X173296371Y-116200485D01*
X173484785Y-115746734D01*
X173485214Y-115255421D01*
X173297592Y-114801343D01*
X172996554Y-114499778D01*
X173296371Y-114200485D01*
X173484785Y-113746734D01*
X173485214Y-113255421D01*
X173297592Y-112801343D01*
X172996554Y-112499778D01*
X173296371Y-112200485D01*
X173484785Y-111746734D01*
X173485214Y-111255421D01*
X173297592Y-110801343D01*
X172950485Y-110453629D01*
X172496734Y-110265215D01*
X172203776Y-110264959D01*
X177783736Y-104685000D01*
X188716264Y-104685000D01*
X194296303Y-110265039D01*
X194296303Y-110265039D01*
G37*
X194296303Y-110265039D02*
X194005421Y-110264786D01*
X193551343Y-110452408D01*
X193203629Y-110799515D01*
X193015215Y-111253266D01*
X193014786Y-111744579D01*
X193202408Y-112198657D01*
X193503445Y-112500221D01*
X193203629Y-112799515D01*
X193015215Y-113253266D01*
X193014786Y-113744579D01*
X193202408Y-114198657D01*
X193503445Y-114500221D01*
X193203629Y-114799515D01*
X193015215Y-115253266D01*
X193014786Y-115744579D01*
X193202408Y-116198657D01*
X193503445Y-116500221D01*
X193203629Y-116799515D01*
X193015215Y-117253266D01*
X193014786Y-117744579D01*
X193202408Y-118198657D01*
X193503445Y-118500221D01*
X193203629Y-118799515D01*
X193015215Y-119253266D01*
X193014786Y-119744579D01*
X193202408Y-120198657D01*
X193503445Y-120500221D01*
X193203629Y-120799515D01*
X193015215Y-121253266D01*
X193014786Y-121744579D01*
X193202408Y-122198657D01*
X193503445Y-122500221D01*
X193203629Y-122799515D01*
X193015215Y-123253266D01*
X193014786Y-123744579D01*
X193202408Y-124198657D01*
X193503445Y-124500221D01*
X193203629Y-124799515D01*
X193015215Y-125253266D01*
X193014786Y-125744579D01*
X193202408Y-126198657D01*
X193503445Y-126500221D01*
X193203629Y-126799515D01*
X193015215Y-127253266D01*
X193014786Y-127744579D01*
X193202408Y-128198657D01*
X193503445Y-128500221D01*
X193203629Y-128799515D01*
X193015215Y-129253266D01*
X193014786Y-129744579D01*
X193202408Y-130198657D01*
X193318547Y-130315000D01*
X192807764Y-130315000D01*
X192901000Y-130089910D01*
X192901000Y-129837291D01*
X192901000Y-128110091D01*
X192804327Y-127876702D01*
X192625699Y-127698073D01*
X192472220Y-127634499D01*
X192494415Y-127619670D01*
X192819271Y-127133489D01*
X192933345Y-126560000D01*
X192819271Y-125986511D01*
X192494415Y-125500330D01*
X192179634Y-125290000D01*
X192494415Y-125079670D01*
X192819271Y-124593489D01*
X192933345Y-124020000D01*
X192819271Y-123446511D01*
X192494415Y-122960330D01*
X192179634Y-122750000D01*
X192494415Y-122539670D01*
X192819271Y-122053489D01*
X192933345Y-121480000D01*
X192819271Y-120906511D01*
X192494415Y-120420330D01*
X192179634Y-120210000D01*
X192494415Y-119999670D01*
X192819271Y-119513489D01*
X192933345Y-118940000D01*
X192819271Y-118366511D01*
X192494415Y-117880330D01*
X192184930Y-117673539D01*
X192600732Y-117302036D01*
X192854709Y-116774791D01*
X192857358Y-116759026D01*
X192857358Y-116040974D01*
X192854709Y-116025209D01*
X192600732Y-115497964D01*
X192164320Y-115108046D01*
X191611913Y-114914816D01*
X191377000Y-115059076D01*
X191377000Y-116273000D01*
X192736217Y-116273000D01*
X192857358Y-116040974D01*
X192857358Y-116759026D01*
X192736217Y-116527000D01*
X191377000Y-116527000D01*
X191377000Y-116547000D01*
X191123000Y-116547000D01*
X191123000Y-116527000D01*
X191103000Y-116527000D01*
X191103000Y-116273000D01*
X191123000Y-116273000D01*
X191123000Y-115059076D01*
X190888087Y-114914816D01*
X190335680Y-115108046D01*
X190012000Y-115397242D01*
X190012000Y-108000000D01*
X189953996Y-107708396D01*
X189953996Y-107708395D01*
X189788815Y-107461185D01*
X188768815Y-106441185D01*
X188521605Y-106276004D01*
X188366001Y-106245052D01*
X188149029Y-105920330D01*
X187662848Y-105595474D01*
X187089359Y-105481400D01*
X187030641Y-105481400D01*
X186457152Y-105595474D01*
X185970971Y-105920330D01*
X185790000Y-106191172D01*
X185609029Y-105920330D01*
X185122848Y-105595474D01*
X184549359Y-105481400D01*
X184490641Y-105481400D01*
X183917152Y-105595474D01*
X183430971Y-105920330D01*
X183250000Y-106191172D01*
X183069029Y-105920330D01*
X182582848Y-105595474D01*
X182009359Y-105481400D01*
X181950641Y-105481400D01*
X181377152Y-105595474D01*
X180890971Y-105920330D01*
X180710000Y-106191172D01*
X180529029Y-105920330D01*
X180042848Y-105595474D01*
X179469359Y-105481400D01*
X179410641Y-105481400D01*
X178837152Y-105595474D01*
X178350971Y-105920330D01*
X178026115Y-106406511D01*
X177912041Y-106980000D01*
X178026115Y-107553489D01*
X178350971Y-108039670D01*
X178665751Y-108250000D01*
X178350971Y-108460330D01*
X178026115Y-108946511D01*
X177912041Y-109520000D01*
X178026115Y-110093489D01*
X178350971Y-110579670D01*
X178837152Y-110904526D01*
X179410641Y-111018600D01*
X179469359Y-111018600D01*
X180042848Y-110904526D01*
X180529029Y-110579670D01*
X180710000Y-110308827D01*
X180890971Y-110579670D01*
X181218000Y-110798183D01*
X181218000Y-111704369D01*
X178901185Y-114021185D01*
X178736004Y-114268395D01*
X178678000Y-114560000D01*
X178678000Y-123710000D01*
X178736004Y-124001605D01*
X178901185Y-124248815D01*
X179055998Y-124352258D01*
X179118854Y-124504380D01*
X179493647Y-124879827D01*
X179983587Y-125083268D01*
X180514086Y-125083731D01*
X181004380Y-124881146D01*
X181379827Y-124506353D01*
X181583268Y-124016413D01*
X181583731Y-123485914D01*
X181381146Y-122995620D01*
X181006353Y-122620173D01*
X180516413Y-122416732D01*
X180202000Y-122416457D01*
X180202000Y-114875630D01*
X182518815Y-112558816D01*
X182518815Y-112558815D01*
X182683996Y-112311605D01*
X182741999Y-112020000D01*
X182742000Y-112020000D01*
X182742000Y-110798183D01*
X183069029Y-110579670D01*
X183250000Y-110308827D01*
X183430971Y-110579670D01*
X183917152Y-110904526D01*
X184490641Y-111018600D01*
X184549359Y-111018600D01*
X185122848Y-110904526D01*
X185594356Y-110589473D01*
X185658073Y-110743299D01*
X185836702Y-110921927D01*
X186070091Y-111018600D01*
X186774250Y-111018600D01*
X186933000Y-110859850D01*
X186933000Y-109647000D01*
X186913000Y-109647000D01*
X186913000Y-109393000D01*
X186933000Y-109393000D01*
X186933000Y-109373000D01*
X187187000Y-109373000D01*
X187187000Y-109393000D01*
X187207000Y-109393000D01*
X187207000Y-109647000D01*
X187187000Y-109647000D01*
X187187000Y-110859850D01*
X187345750Y-111018600D01*
X188049909Y-111018600D01*
X188283298Y-110921927D01*
X188461927Y-110743299D01*
X188488000Y-110680353D01*
X188488000Y-124560000D01*
X188546004Y-124851605D01*
X188711185Y-125098815D01*
X189667149Y-126054779D01*
X189566655Y-126560000D01*
X189680729Y-127133489D01*
X190005585Y-127619670D01*
X190027780Y-127634500D01*
X189874302Y-127698073D01*
X189695673Y-127876701D01*
X189599000Y-128110090D01*
X189599000Y-128362709D01*
X189599000Y-130089909D01*
X189692235Y-130315000D01*
X188095927Y-130315000D01*
X188095927Y-128942520D01*
X188083731Y-128718035D01*
X188083731Y-123485914D01*
X187881146Y-122995620D01*
X187506353Y-122620173D01*
X187016413Y-122416732D01*
X186485914Y-122416269D01*
X185995620Y-122618854D01*
X185620173Y-122993647D01*
X185416732Y-123483587D01*
X185416269Y-124014086D01*
X185618854Y-124504380D01*
X185993647Y-124879827D01*
X186483587Y-125083268D01*
X187014086Y-125083731D01*
X187504380Y-124881146D01*
X187879827Y-124506353D01*
X188083268Y-124016413D01*
X188083731Y-123485914D01*
X188083731Y-128718035D01*
X188067148Y-128412801D01*
X187919800Y-128057071D01*
X187684188Y-127995417D01*
X187504583Y-128175022D01*
X187504583Y-127815812D01*
X187442929Y-127580200D01*
X186942520Y-127404073D01*
X186412801Y-127432852D01*
X186057071Y-127580200D01*
X185995417Y-127815812D01*
X186750000Y-128570395D01*
X187504583Y-127815812D01*
X187504583Y-128175022D01*
X186929605Y-128750000D01*
X187684188Y-129504583D01*
X187919800Y-129442929D01*
X188095927Y-128942520D01*
X188095927Y-130315000D01*
X187504583Y-130315000D01*
X187504583Y-129684188D01*
X186750000Y-128929605D01*
X186570395Y-129109210D01*
X186570395Y-128750000D01*
X185815812Y-127995417D01*
X185580200Y-128057071D01*
X185404073Y-128557480D01*
X185432852Y-129087199D01*
X185580200Y-129442929D01*
X185815812Y-129504583D01*
X186570395Y-128750000D01*
X186570395Y-129109210D01*
X185995417Y-129684188D01*
X186057071Y-129919800D01*
X186557480Y-130095927D01*
X187087199Y-130067148D01*
X187442929Y-129919800D01*
X187504583Y-129684188D01*
X187504583Y-130315000D01*
X181595927Y-130315000D01*
X181595927Y-128942520D01*
X181567148Y-128412801D01*
X181419800Y-128057071D01*
X181184188Y-127995417D01*
X181004583Y-128175022D01*
X181004583Y-127815812D01*
X180942929Y-127580200D01*
X180442520Y-127404073D01*
X179912801Y-127432852D01*
X179557071Y-127580200D01*
X179495417Y-127815812D01*
X180250000Y-128570395D01*
X181004583Y-127815812D01*
X181004583Y-128175022D01*
X180429605Y-128750000D01*
X181184188Y-129504583D01*
X181419800Y-129442929D01*
X181595927Y-128942520D01*
X181595927Y-130315000D01*
X181004583Y-130315000D01*
X181004583Y-129684188D01*
X180250000Y-128929605D01*
X180070395Y-129109210D01*
X180070395Y-128750000D01*
X179315812Y-127995417D01*
X179080200Y-128057071D01*
X178904073Y-128557480D01*
X178932852Y-129087199D01*
X179080200Y-129442929D01*
X179315812Y-129504583D01*
X180070395Y-128750000D01*
X180070395Y-129109210D01*
X179495417Y-129684188D01*
X179557071Y-129919800D01*
X180057480Y-130095927D01*
X180587199Y-130067148D01*
X180942929Y-129919800D01*
X181004583Y-129684188D01*
X181004583Y-130315000D01*
X173497807Y-130315000D01*
X173212252Y-130315000D01*
X173228430Y-130298822D01*
X173112737Y-130183129D01*
X173338164Y-130133617D01*
X173497807Y-129668964D01*
X173467482Y-129178587D01*
X173338164Y-128866383D01*
X173112735Y-128816870D01*
X172429605Y-129500000D01*
X172443747Y-129514142D01*
X172264142Y-129693747D01*
X172250000Y-129679605D01*
X172235857Y-129693747D01*
X172056252Y-129514142D01*
X172070395Y-129500000D01*
X172056252Y-129485857D01*
X172235857Y-129306252D01*
X172250000Y-129320395D01*
X172933130Y-128637265D01*
X172916364Y-128560934D01*
X172948657Y-128547592D01*
X173296371Y-128200485D01*
X173484785Y-127746734D01*
X173485214Y-127255421D01*
X173297592Y-126801343D01*
X172996554Y-126499778D01*
X173296371Y-126200485D01*
X173484785Y-125746734D01*
X173485214Y-125255421D01*
X173297592Y-124801343D01*
X172996554Y-124499778D01*
X173296371Y-124200485D01*
X173484785Y-123746734D01*
X173485214Y-123255421D01*
X173297592Y-122801343D01*
X172996554Y-122499778D01*
X173296371Y-122200485D01*
X173484785Y-121746734D01*
X173485214Y-121255421D01*
X173297592Y-120801343D01*
X172996554Y-120499778D01*
X173296371Y-120200485D01*
X173484785Y-119746734D01*
X173485214Y-119255421D01*
X173297592Y-118801343D01*
X172996554Y-118499778D01*
X173296371Y-118200485D01*
X173484785Y-117746734D01*
X173485214Y-117255421D01*
X173297592Y-116801343D01*
X172996554Y-116499778D01*
X173296371Y-116200485D01*
X173484785Y-115746734D01*
X173485214Y-115255421D01*
X173297592Y-114801343D01*
X172996554Y-114499778D01*
X173296371Y-114200485D01*
X173484785Y-113746734D01*
X173485214Y-113255421D01*
X173297592Y-112801343D01*
X172996554Y-112499778D01*
X173296371Y-112200485D01*
X173484785Y-111746734D01*
X173485214Y-111255421D01*
X173297592Y-110801343D01*
X172950485Y-110453629D01*
X172496734Y-110265215D01*
X172203776Y-110264959D01*
X177783736Y-104685000D01*
X188716264Y-104685000D01*
X194296303Y-110265039D01*
M02*
