G04 #@! TF.FileFunction,Copper,L1,Top,Signal*
%FSLAX46Y46*%
G04 Gerber Fmt 4.6, Leading zero omitted, Abs format (unit mm)*
G04 Created by KiCad (PCBNEW (2014-11-17 BZR 5289)-product) date Fri 09 Jan 2015 11:16:49 AM EST*
%MOMM*%
G01*
G04 APERTURE LIST*
%ADD10C,0.100000*%
%ADD11C,1.200000*%
%ADD12R,2.032000X1.727200*%
%ADD13O,2.032000X1.727200*%
%ADD14C,1.397000*%
%ADD15R,1.727200X1.727200*%
%ADD16O,1.727200X1.727200*%
%ADD17C,0.889000*%
%ADD18C,0.500000*%
%ADD19C,0.254000*%
G04 APERTURE END LIST*
D10*
D11*
X172250000Y-111500000D03*
X172250000Y-113500000D03*
X172250000Y-115500000D03*
X172250000Y-117500000D03*
X172250000Y-119500000D03*
X172250000Y-121500000D03*
X172250000Y-123500000D03*
X172250000Y-125500000D03*
X172250000Y-127500000D03*
X172250000Y-129500000D03*
D12*
X191500000Y-129100000D03*
D13*
X191500000Y-126560000D03*
X191500000Y-124020000D03*
X191500000Y-121480000D03*
X191500000Y-118940000D03*
X191500000Y-116400000D03*
D11*
X194250000Y-111500000D03*
X194250000Y-113500000D03*
X194250000Y-115500000D03*
X194250000Y-117500000D03*
X194250000Y-119500000D03*
X194250000Y-121500000D03*
X194250000Y-123500000D03*
X194250000Y-125500000D03*
X194250000Y-127500000D03*
X194250000Y-129500000D03*
D14*
X187060000Y-123710000D03*
X187060000Y-128790000D03*
X179440000Y-123710000D03*
X179440000Y-128790000D03*
D15*
X179440000Y-106980000D03*
D16*
X179440000Y-109520000D03*
X181980000Y-106980000D03*
X181980000Y-109520000D03*
X184520000Y-106980000D03*
X184520000Y-109520000D03*
X187060000Y-106980000D03*
X187060000Y-109520000D03*
D17*
X185500000Y-115500000D03*
X179500000Y-116500000D03*
D18*
X181980000Y-109520000D02*
X181980000Y-111500000D01*
X181980000Y-111500000D02*
X182000000Y-111500000D01*
X172250000Y-111500000D02*
X182000000Y-111500000D01*
X182000000Y-111500000D02*
X185750000Y-111500000D01*
X187060000Y-110190000D02*
X187060000Y-109520000D01*
X185750000Y-111500000D02*
X187060000Y-110190000D01*
D19*
X172250000Y-115500000D02*
X185500000Y-115500000D01*
X189480000Y-106980000D02*
X187060000Y-106980000D01*
X191000000Y-108500000D02*
X189480000Y-106980000D01*
X191000000Y-110000000D02*
X191000000Y-108500000D01*
X185500000Y-115500000D02*
X191000000Y-110000000D01*
X189500000Y-127100000D02*
X191500000Y-129100000D01*
X189500000Y-121000000D02*
X189500000Y-127100000D01*
X188250000Y-119750000D02*
X189500000Y-121000000D01*
X182750000Y-119750000D02*
X188250000Y-119750000D01*
X179500000Y-116500000D02*
X182750000Y-119750000D01*
X191350000Y-129100000D02*
X191500000Y-129100000D01*
M02*
